# xmcd
#
# Track frame offsets:
#	150
#	18293
#	32631
#	45634
#	73804
#	94736
#	116550
#	128659
#	141539
#	165708
#	180283
#	197708
#
# Disc length: 2937 seconds
#
# Revision: 0
# Processed by: cddbd v1.5.2PL0 Copyright (c) Steve Scherf et al.
# Submitted via: dBpowerAMP V4.0
#
DISCID=a20b770c
DTITLE=Michael Grimm - Leave Your Hat On
DYEAR=2010
DGENRE=Country
TTITLE0=You CanLeave Your Had On 
TTITLE1=Tired Of Being Alone
TTITLE2=You Got Me Hummin
TTITLE3=I'd Rather Go Blind
TTITLE4=Qualified
TTITLE5=When Something Is Wrong
TTITLE6=Down InThe Valley
TTITLE7=Hold On I'm Comin
TTITLE8=Love And Happiness
TTITLE9=These Arms Of Mine
TTITLE10=Try A Little Tenderness
TTITLE11=You Don't Know Me
EXTD=
EXTT0=
EXTT1=
EXTT2=
EXTT3=
EXTT4=
EXTT5=
EXTT6=
EXTT7=
EXTT8=
EXTT9=
EXTT10=
EXTT11=
PLAYORDER=
